<?xml version="1.0" standalone="no"?>
<!DOCTYPE svg PUBLIC "-//W3C//DTD SVG 20010904//EN"
 "http://www.w3.org/TR/2001/REC-SVG-20010904/DTD/svg10.dtd">
<svg version="1.0" xmlns="http://www.w3.org/2000/svg"
 width="512.000000pt" height="422.000000pt" viewBox="0 0 512.000000 422.000000"
 preserveAspectRatio="xMidYMid meet">

<g transform="translate(0.000000,422.000000) scale(0.100000,-0.100000)"
fill="#000000" stroke="none">
<path d="M2170 4139 c-30 -11 -62 -22 -70 -26 -8 -3 -19 -7 -25 -9 -5 -1 -62
-16 -126 -32 -63 -17 -160 -49 -215 -71 -54 -22 -112 -45 -129 -51 -19 -7 -25
-14 -17 -19 8 -5 -21 -41 -88 -109 -55 -56 -104 -102 -109 -102 -5 0 -16 -17
-26 -37 -9 -21 -27 -59 -41 -84 -36 -70 -90 -225 -103 -299 -32 -178 -53 -338
-61 -456 -4 -77 -13 -141 -21 -155 -11 -18 -14 -69 -13 -199 1 -203 9 -290 29
-290 21 0 33 -50 25 -105 -15 -93 -23 -125 -31 -125 -13 0 -11 -182 3 -256 9
-51 9 -75 -3 -121 -7 -32 -14 -65 -15 -73 0 -8 -3 -31 -7 -52 -7 -35 -3 -63
25 -156 11 -37 10 -44 -2 -52 -35 -23 -40 -18 -76 84 -14 38 -19 45 -24 30 -4
-11 -3 -32 1 -49 14 -47 12 -60 -6 -45 -12 10 -15 9 -15 -4 0 -9 5 -24 11 -34
10 -15 7 -23 -15 -45 -26 -26 -37 -87 -16 -87 6 0 10 -7 10 -15 0 -9 11 -20
25 -25 19 -7 25 -17 25 -39 0 -17 -6 -34 -13 -38 -7 -4 -20 -19 -29 -33 -8
-14 -27 -38 -42 -53 -14 -15 -26 -35 -26 -43 0 -7 -4 -14 -9 -14 -7 0 -65 -90
-80 -124 -2 -5 -12 -17 -22 -27 -11 -11 -19 -25 -19 -33 0 -7 -6 -25 -13 -39
l-13 -26 -17 29 c-22 37 -21 58 9 165 31 111 50 222 40 232 -18 18 -118 -152
-129 -219 -2 -13 -6 -30 -9 -38 -29 -79 -38 -119 -49 -205 -7 -55 -16 -104
-20 -110 -4 -5 -10 -59 -14 -120 -4 -60 -11 -117 -15 -125 -4 -8 -10 -45 -14
-82 -4 -37 -9 -75 -12 -83 -6 -14 46 -15 482 -12 348 2 517 7 587 17 82 12
114 12 210 0 61 -7 183 -15 269 -17 141 -4 157 -3 152 11 -3 9 0 26 8 39 8 12
18 34 22 49 3 15 29 51 56 79 28 28 50 57 50 63 0 14 -158 11 -200 -4 -14 -5
-54 -12 -90 -16 -36 -4 -72 -9 -80 -11 -24 -5 -117 -20 -210 -33 -47 -7 -94
-16 -105 -21 -31 -12 -118 -28 -127 -23 -5 3 -4 13 1 23 6 10 6 35 -1 64 -7
33 -7 52 1 60 20 24 25 139 8 180 -28 65 -77 42 -77 -37 0 -45 -28 -167 -43
-185 -6 -7 -12 -19 -12 -25 -2 -30 -19 -66 -31 -67 -8 -1 -19 -2 -26 -3 -7 0
-15 -12 -19 -26 -4 -15 -7 -18 -8 -8 -2 26 -16 29 -50 12 -19 -9 -31 -23 -31
-35 0 -23 -28 -26 -37 -4 -3 9 1 39 9 68 9 31 13 76 11 112 -7 86 23 152 41
93 7 -22 7 -22 16 -3 14 32 12 87 -2 83 -7 -3 -14 -14 -16 -25 -2 -15 -9 -19
-22 -16 -21 6 -69 -25 -70 -45 0 -13 -39 7 -68 35 -7 7 -21 13 -31 13 -14 0
-18 9 -18 50 -1 42 3 53 24 70 33 25 51 99 59 230 5 78 10 108 22 117 25 20
29 16 36 -33 3 -25 17 -59 30 -77 13 -18 26 -45 29 -62 13 -70 24 -111 35
-132 7 -12 12 -39 12 -61 0 -22 6 -55 14 -73 l14 -34 7 48 c4 26 5 90 2 141
-5 88 -4 95 13 101 23 7 62 54 55 65 -3 5 -19 1 -36 -7 -45 -22 -63 -1 -60 70
1 23 5 27 29 27 17 0 41 -12 62 -30 34 -30 40 -30 77 3 15 13 42 21 88 25 58
4 68 8 77 28 6 13 15 24 20 24 4 0 8 7 8 15 0 11 11 15 38 15 32 0 41 5 50 25
7 14 23 27 39 30 15 4 38 11 51 16 17 7 30 4 49 -9 15 -9 28 -16 30 -14 2 1
12 2 23 2 15 0 20 -7 20 -26 0 -16 12 -37 30 -54 17 -15 30 -35 30 -44 0 -9 3
-16 8 -17 41 -6 72 -5 72 3 0 5 6 3 14 -5 9 -9 47 -17 98 -20 113 -9 124 -6
120 29 -5 59 -43 310 -52 352 -6 24 -15 86 -20 138 -6 53 -13 114 -17 136 -4
30 -3 39 5 34 7 -4 12 -21 12 -37 0 -16 7 -46 15 -66 8 -19 15 -62 15 -94 0
-32 5 -78 10 -101 11 -47 57 -311 70 -398 13 -93 22 -102 90 -95 19 2 45 4 58
4 14 1 22 7 22 19 0 26 45 66 65 58 13 -4 14 -15 9 -55 -6 -48 -6 -50 27 -67
19 -10 41 -17 50 -16 28 4 69 -17 69 -35 0 -10 -9 -40 -19 -68 -16 -43 -23
-50 -43 -47 -42 6 -111 33 -188 72 -72 38 -80 39 -198 45 -68 3 -127 3 -132 0
-20 -13 4 -41 48 -55 44 -14 47 -18 50 -52 2 -20 -1 -45 -6 -55 -7 -13 -6 -22
4 -31 8 -7 14 -8 14 -2 0 5 7 10 15 10 8 0 15 -4 15 -9 0 -5 13 -12 29 -16 24
-5 30 -12 33 -37 2 -17 9 -33 16 -36 16 -5 16 62 0 140 -11 52 -7 81 8 66 3
-3 13 -50 22 -104 18 -102 31 -136 63 -167 11 -10 19 -26 19 -37 0 -11 13 -25
32 -34 35 -18 58 -21 58 -7 0 5 15 8 33 7 26 -1 33 -6 35 -26 4 -36 23 -80 34
-80 5 0 18 -9 30 -20 17 -15 36 -20 79 -20 32 0 61 -5 64 -10 3 -6 23 -10 44
-10 21 0 60 -3 87 -7 l49 -8 -50 -6 c-27 -3 406 -7 963 -7 l1012 -2 0 88 c0
125 -43 336 -85 422 -74 149 -152 291 -184 332 -20 25 -47 61 -61 79 -29 39
-83 91 -123 122 -16 12 -34 27 -41 34 -7 6 -33 17 -57 24 -24 7 -48 17 -54 23
-17 19 -91 20 -98 2 -4 -9 -14 -16 -23 -16 -8 0 -14 -6 -12 -12 3 -7 -2 -19
-9 -27 -10 -9 -12 -23 -7 -45 4 -17 7 -40 6 -51 -1 -11 -6 -85 -13 -165 -6
-80 -12 -166 -13 -192 -1 -26 -4 -49 -7 -50 -2 -2 -13 -8 -24 -14 -11 -6 -21
-20 -23 -30 -2 -14 -1 -16 6 -6 12 18 21 -23 14 -67 -4 -26 -6 -28 -18 -16 -8
7 -14 28 -14 45 0 25 -3 31 -16 26 -8 -3 -22 1 -30 9 -9 8 -12 15 -7 15 4 0 1
6 -8 13 -19 15 -39 91 -39 151 0 26 -5 46 -12 49 -10 4 -9 8 2 16 10 7 17 6
22 -2 5 -8 8 -5 8 8 0 12 13 26 33 36 30 15 32 19 33 75 1 32 5 71 9 87 4 16
3 27 -3 27 -5 0 -12 12 -15 28 -6 32 19 92 39 92 8 0 14 5 14 10 0 6 16 10 36
10 32 0 35 2 28 23 -3 12 -7 23 -8 24 -4 5 -147 73 -154 73 -5 0 -26 15 -48
32 -69 57 -175 105 -282 128 -41 8 -69 20 -80 34 -27 35 -40 39 -34 11 3 -17
-1 -27 -13 -31 -19 -7 -35 10 -35 38 0 9 -11 34 -25 54 -32 47 -32 58 0 50
l26 -7 -17 33 c-16 30 -18 31 -25 13 -8 -22 -13 -8 -10 31 1 11 -5 27 -13 34
-14 11 -16 9 -16 -14 0 -26 -14 -33 -38 -18 -7 5 -16 31 -21 59 -7 46 -52 123
-71 123 -5 0 -29 20 -54 45 -26 25 -50 45 -54 45 -4 0 -29 45 -56 100 -57 116
-66 172 -43 252 37 122 58 214 59 252 0 23 -16 115 -35 206 -20 91 -38 190
-42 220 -19 168 -72 377 -136 537 -17 43 -40 105 -51 138 -28 81 -58 140 -66
128 -4 -5 -38 21 -76 59 l-69 68 32 0 c17 0 31 4 31 10 0 14 -95 60 -124 60
-13 0 -48 16 -77 35 -28 20 -82 45 -118 56 -36 12 -88 31 -116 44 -127 59
-190 66 -285 34z m75 -54 c0 -16 -6 -19 -30 -17 -16 2 -34 7 -39 12 -16 15 6
31 37 28 24 -2 32 -8 32 -23z m-221 -490 c11 -8 28 -15 38 -15 26 0 25 -70 -1
-94 -34 -30 -44 -71 -36 -141 5 -55 10 -65 26 -65 42 0 32 -96 -11 -107 -13
-4 -20 -14 -20 -29 0 -16 -8 -28 -25 -36 -14 -6 -33 -25 -44 -43 -15 -25 -29
-34 -67 -42 -64 -14 -165 -52 -185 -69 -8 -8 -26 -14 -39 -14 -14 0 -40 -15
-62 -37 -33 -33 -38 -43 -38 -84 0 -26 5 -51 10 -54 6 -3 10 -16 10 -28 0 -29
37 -71 80 -91 74 -35 154 -82 157 -93 3 -7 -7 -19 -21 -29 -14 -9 -26 -21 -26
-26 0 -5 -10 -18 -21 -27 -17 -14 -20 -23 -14 -49 3 -18 13 -32 20 -32 9 0 12
-6 9 -15 -8 -19 20 -20 42 -2 8 6 57 53 107 102 101 99 132 125 147 125 6 0
10 4 10 10 0 5 13 23 30 38 27 26 29 35 32 107 3 76 4 79 30 86 20 5 31 2 45
-13 15 -16 18 -39 19 -122 1 -55 9 -135 18 -176 20 -91 14 -172 -16 -199 -13
-13 -39 -21 -76 -23 -32 -2 -65 -8 -74 -12 -13 -6 -17 -2 -20 21 -2 22 -7 27
-23 25 -11 -2 -27 -10 -36 -19 -19 -16 -34 -93 -24 -123 6 -18 12 -20 56 -14
27 4 61 2 76 -4 16 -6 40 -13 55 -16 25 -6 26 -8 16 -39 -16 -47 -66 -97 -99
-97 -15 0 -31 -4 -34 -10 -3 -5 -17 -10 -30 -10 -14 0 -29 -8 -35 -19 -5 -11
-19 -22 -29 -26 -12 -3 -18 -12 -15 -20 3 -7 -3 -16 -15 -20 -13 -4 -21 -15
-21 -29 0 -13 -8 -34 -19 -47 -21 -27 -21 -27 -21 -69 0 -23 -4 -30 -20 -30
-11 0 -20 6 -21 13 0 9 -2 9 -5 0 -3 -7 -12 -9 -21 -6 -8 3 -24 6 -36 7 -15 1
-30 17 -52 61 -16 33 -33 62 -36 65 -12 10 -77 166 -97 235 -27 90 -33 123
-21 127 7 3 -17 62 -45 107 -5 7 -11 41 -13 75 -2 33 -8 77 -13 96 -22 78 -1
241 38 315 12 22 22 54 22 72 0 18 11 58 25 89 14 31 25 60 25 64 0 4 21 45
46 89 25 45 43 89 40 97 -3 7 -2 14 3 14 5 0 19 28 31 63 51 137 100 205 177
245 65 33 108 39 137 17z m-793 -1278 c40 -57 60 -157 30 -157 -12 0 -31 63
-31 102 0 15 -4 29 -9 32 -11 7 -22 46 -13 46 4 0 14 -11 23 -23z m169 -47 c0
-6 -9 -66 -20 -134 -21 -134 -29 -292 -17 -371 6 -43 5 -46 -4 -20 -18 50 -15
240 6 393 10 78 23 142 27 142 4 0 8 -5 8 -10z m1850 -228 c0 -15 -2 -15 -10
-2 -13 20 -13 33 0 25 6 -3 10 -14 10 -23z m56 -73 l15 -30 -25 17 c-14 9 -26
25 -26 36 0 25 16 15 36 -23z m-2056 -19 c12 -37 12 -41 -15 -76 -27 -36 -28
-36 -47 -16 -20 20 -20 20 5 76 14 31 30 56 35 56 5 0 15 -18 22 -40z m2218
-160 c14 -22 22 -48 22 -76 l0 -42 -52 -4 c-29 -2 -60 -8 -69 -12 -13 -6 -17
7 -26 76 -5 46 -6 88 -2 93 4 6 1 19 -7 29 -26 37 -14 37 49 3 34 -19 72 -49
85 -67z m-238 70 c0 -11 -4 -20 -9 -20 -5 0 -7 9 -4 20 3 11 7 20 9 20 2 0 4
-9 4 -20z m63 -27 c8 -27 18 -79 22 -116 10 -90 17 -96 94 -84 34 5 64 7 67 4
13 -13 -8 -56 -43 -91 l-38 -37 -32 38 c-17 21 -35 34 -39 31 -4 -4 -19 1 -34
12 -23 16 -28 30 -34 82 -4 35 -13 66 -19 70 -7 4 -6 18 5 45 9 21 19 50 22
66 4 15 8 27 10 27 2 0 11 -21 19 -47z m-2033 18 c-10 -21 -30 -37 -30 -26 0
14 21 45 31 45 6 0 6 -7 -1 -19z m-72 -34 c4 -29 -12 -37 -22 -11 -10 26 -7
46 7 42 6 -3 13 -17 15 -31z m145 -132 c-18 -37 -33 -46 -33 -18 0 16 28 51
42 52 4 1 0 -15 -9 -34z m72 -65 c19 -59 30 -256 14 -265 -5 -3 -13 -24 -20
-47 -8 -32 -8 -47 2 -65 11 -21 10 -25 -9 -39 -22 -15 -48 -58 -63 -104 -7
-21 -8 -20 -5 10 2 19 20 82 41 140 48 137 55 219 26 354 -29 135 -25 139 14
16z m1825 46 c0 -6 -7 -2 -15 8 -8 11 -15 25 -15 30 0 6 7 2 15 -8 8 -11 15
-25 15 -30z m-910 -13 c0 -13 -4 -23 -10 -23 -5 0 -10 17 -10 38 0 27 3 33 10
22 5 -8 10 -25 10 -37z m1234 -29 c26 -10 18 -21 -14 -20 -17 1 -30 7 -30 14
0 13 19 16 44 6z m-1224 -60 c0 -13 -4 -24 -10 -24 -5 0 -10 14 -10 31 0 17 4
28 10 24 6 -3 10 -17 10 -31z m-1117 -41 c4 -18 3 -33 -2 -33 -12 0 -21 26
-21 58 0 34 15 17 23 -25z m2299 -35 c-18 -18 -33 1 -21 24 11 20 12 20 21 4
7 -12 7 -21 0 -28z m-2302 -38 c10 -32 11 -47 0 -85 -7 -25 -18 -44 -24 -42
-26 8 -47 137 -30 182 6 14 8 14 24 0 9 -8 23 -33 30 -55z m324 54 c4 -10 1
-14 -6 -12 -15 5 -23 28 -10 28 5 0 13 -7 16 -16z m-214 -70 c0 -8 -4 -12 -10
-9 -5 3 -10 13 -10 21 0 8 5 12 10 9 6 -3 10 -13 10 -21z m2437 -30 c-3 -3
-12 -4 -19 -1 -8 3 -5 6 6 6 11 1 17 -2 13 -5z m-2472 -71 c13 -16 25 -38 25
-51 0 -14 4 -21 11 -16 7 4 10 -1 7 -12 -2 -10 -12 -20 -22 -22 -14 -3 -17 0
-13 12 6 16 5 16 -15 1 -31 -21 -42 -19 -57 9 -11 20 -10 29 8 65 12 22 24 41
27 41 3 0 16 -12 29 -27z m-235 -203 c0 -5 -4 -10 -10 -10 -5 0 -10 5 -10 10
0 6 5 10 10 10 6 0 10 -4 10 -10z m427 -37 c7 -24 8 -54 3 -81 -7 -43 -24 -71
-35 -60 -7 7 6 178 14 178 3 0 11 -17 18 -37z m-337 6 c0 -5 -4 -9 -10 -9 -5
0 -10 7 -10 16 0 8 5 12 10 9 6 -3 10 -10 10 -16z m102 -92 c17 -32 -6 -41
-36 -15 -19 17 -24 29 -20 46 6 22 7 22 26 5 11 -10 24 -26 30 -36z m75 1 c-2
-13 -4 -5 -4 17 -1 22 1 32 4 23 2 -10 2 -28 0 -40z m73 -79 c0 -5 -4 -9 -10
-9 -5 0 -10 7 -10 16 0 8 5 12 10 9 6 -3 10 -10 10 -16z m1383 -201 c-13 -25
-23 1 -23 61 0 104 14 121 21 26 3 -44 4 -83 2 -87z m1164 -129 c3 -158 -2
-189 -28 -189 -26 0 -49 23 -49 49 0 12 -4 21 -9 21 -5 0 -11 11 -13 25 -3 13
-1 22 4 19 5 -3 12 3 15 15 3 12 10 21 15 21 5 0 3 7 -6 15 -8 8 -22 15 -30
15 -10 0 -16 9 -16 25 0 14 4 25 9 25 16 0 61 46 61 63 0 16 17 27 35 23 6 -2
11 -54 12 -127z m-539 -31 c24 -24 12 -138 -15 -138 -7 0 -13 -7 -11 -16 2
-12 -11 -20 -51 -30 -52 -14 -97 -11 -76 4 6 4 12 27 14 52 4 58 14 75 51 92
17 7 30 21 30 30 0 21 39 25 58 6z m-2396 -139 c3 -30 0 -34 -22 -36 -14 -1
-20 0 -14 3 6 2 9 16 6 29 -2 14 -1 37 3 52 7 27 8 27 15 7 5 -12 10 -37 12
-55z m1738 -20 c0 -5 -4 -9 -10 -9 -5 0 -10 7 -10 16 0 8 5 12 10 9 6 -3 10
-10 10 -16z m1790 -109 c0 -5 -5 -10 -11 -10 -5 0 -7 5 -4 10 3 6 8 10 11 10
2 0 4 -4 4 -10z m-1517 -69 c7 -5 32 -28 57 -50 43 -40 44 -42 26 -56 -24 -18
-75 -19 -98 -2 -21 16 -32 59 -24 92 7 26 19 31 39 16z m1497 -1 c0 -5 -7 -10
-16 -10 -8 0 -12 5 -9 10 3 6 10 10 16 10 5 0 9 -4 9 -10z m211 -73 c-8 -8
-11 -3 -11 19 1 25 2 27 11 11 8 -14 8 -22 0 -30z m-3297 -92 c5 -19 4 -26 -2
-20 -6 6 -13 26 -16 45 -8 42 8 21 18 -25z"/>
<path d="M4368 1183 c6 -2 18 -2 25 0 6 3 1 5 -13 5 -14 0 -19 -2 -12 -5z"/>
<path d="M665 976 c-18 -13 -18 -14 8 -9 15 3 24 9 21 14 -7 12 -7 12 -29 -5z"/>
<path d="M592 928 c-18 -11 -51 -24 -73 -29 -81 -18 -187 -107 -354 -293 -83
-92 -108 -129 -103 -153 3 -14 18 -4 73 47 39 36 81 74 95 85 14 11 34 39 44
62 20 45 52 81 62 70 4 -4 -2 -28 -13 -54 -19 -44 -20 -60 -12 -185 4 -76 12
-152 17 -170 5 -18 8 -88 8 -155 l-1 -123 96 0 96 0 6 58 c3 31 11 97 18 147
18 144 11 245 -19 245 -4 0 -15 -26 -25 -58 -16 -53 -21 -58 -45 -57 -59 3
-73 23 -91 127 -7 38 -7 78 0 123 12 77 6 115 -19 115 -13 1 -9 8 16 30 17 16
32 34 32 40 0 12 78 48 122 57 18 3 37 10 43 15 5 5 28 19 49 31 22 12 41 27
43 32 6 18 -32 14 -65 -7z"/>
<path d="M673 879 c-6 -8 -19 -39 -28 -69 -9 -30 -27 -84 -41 -120 -24 -66
-32 -144 -15 -155 11 -6 11 -7 51 160 17 72 36 140 42 152 13 27 7 51 -9 32z"/>
<path d="M2077 774 c-12 -12 -8 -22 17 -48 28 -31 32 -31 54 -9 12 12 13 18 4
21 -6 2 -12 10 -12 18 0 8 -6 14 -14 14 -8 0 -21 2 -28 5 -8 3 -17 2 -21 -1z"/>
<path d="M2307 774 c-4 -4 -27 -7 -50 -5 -33 1 -48 -3 -62 -19 -14 -15 -16
-23 -7 -32 9 -9 16 -7 30 5 10 9 32 17 48 17 35 0 58 13 53 29 -3 7 -8 9 -12
5z"/>
<path d="M4250 675 c0 -8 5 -15 10 -15 6 0 10 7 10 15 0 8 -4 15 -10 15 -5 0
-10 -7 -10 -15z"/>
<path d="M2396 101 c-37 -17 -54 -30 -45 -34 8 -3 5 -6 -9 -6 -13 -1 -21 -5
-18 -10 4 -5 0 -12 -6 -14 -7 -3 131 -5 307 -4 254 1 287 2 160 7 -88 3 -146
7 -130 9 26 3 27 4 7 8 -13 3 -48 18 -79 34 -80 42 -116 44 -187 10z"/>
<path d="M2823 53 c20 -2 54 -2 75 0 20 2 3 4 -38 4 -41 0 -58 -2 -37 -4z"/>
</g>
</svg>
